#!OML:ASF X:\für Bonn\!DataBase\2005_08_10_Bjorn_Final\c3d\bjorn.ASF
:FULLY-SPECIFIED
:DEGREES
168
root -14.3887 18.5758 12.0914 178.278 55.6217 -530.037
lowerback 7.09804 -2.47782 -0.331902
upperback 18.3522 -1.14481 0.431214
thorax 16.5813 0.251468 0.859314
lowerneck 7.59 0.338692 4.01828
upperneck -6.04592 0.927691 0.246671
head -3.2749 0.362492 -0.674071
rclavicle 1.03368e-014 -1.43125e-014
rhumerus -21.2409 -14.2584 -87.1183
rradius 76.8553
rwrist 0.323183
rhand -24.168 18.7828
rfingers 7.12502
rthumb 2.31515 -11.1844
lclavicle 1.03368e-014 -1.43125e-014
lhumerus -6.12759 -6.18458 88.033
lradius 68.5015
lwrist -19.0987
lhand -48.7919 -17.1783
lfingers 7.12502
lthumb -21.4292 11.6566
rfemur -49.3809 -20.1894 15.5179
rtibia 88.6124
rfoot 9.85978 21.1978
rtoes -29.5874
lfemur 0.0712954 13.813 -10.5181
ltibia 40.7319
lfoot -21.755 9.66394
ltoes 2.64849
169
root -14.343 18.553 12.0366 178.114 55.8044 -530.155
lowerback 6.90231 -2.50761 -0.277021
upperback 18.3341 -1.20893 0.462269
thorax 16.682 0.218995 0.856666
lowerneck 7.54724 0.430397 4.24124
upperneck -5.90089 1.04201 -0.0882058
head -3.2131 0.428913 -0.827709
rclavicle 1.59028e-014 -1.82882e-014
rhumerus -21.0694 -14.2374 -87.0696
rradius 77.0354
rwrist 0.397225
rhand -24.1877 18.78
rfingers 7.12502
rthumb 2.29608 -11.1874
lclavicle 1.59028e-014 -1.82882e-014
lhumerus -5.97339 -6.37229 88.0209
lradius 68.3636
lwrist -19.1518
lhand -48.9132 -17.2065
lfingers 7.12502
lthumb -21.5456 11.6151
rfemur -49.4555 -20.1824 15.6213
rtibia 87.2795
rfoot 9.66647 21.2388
rtoes -30.403
lfemur 0.403027 13.9119 -10.5851
ltibia 40.8226
lfoot -21.9893 9.70002
ltoes 2.84
170
root -14.2965 18.5313 11.9829 177.937 55.9945 -530.308
lowerback 6.70859 -2.5398 -0.235748
upperback 18.3042 -1.27734 0.474758
thorax 16.7657 0.183371 0.839237
lowerneck 7.49992 0.516244 4.48393
upperneck -5.73811 1.14982 -0.434621
head -3.14427 0.492262 -0.987853
rclavicle -5.4467e-014 2.50469e-014
rhumerus -20.9536 -14.1695 -87.0514
rradius 77.2544
rwrist 0.482642
rhand -24.2422 18.746
rfingers 7.12502
rthumb 2.24347 -11.2219
lclavicle -5.4467e-014 2.50469e-014
lhumerus -5.85855 -6.51158 87.9943
lradius 68.2341
lwrist -19.1789
lhand -49.0213 -17.2026
lfingers 7.12502
lthumb -21.6494 11.607
rfemur -49.4765 -20.1233 15.6836
rtibia 85.892
rfoot 9.65947 21.1905
rtoes -30.7544
lfemur 0.736284 14.026 -10.6702
ltibia 40.8826
lfoot -22.202 9.73167
ltoes 2.9922
171
root -14.2493 18.5119 11.9298 177.748 56.1742 -530.456
lowerback 6.54238 -2.56271 -0.197822
upperback 18.2877 -1.32955 0.503969
thorax 16.8507 0.155267 0.844595
lowerneck 7.42771 0.603303 4.68102
upperneck -5.57076 1.25746 -0.733815
head -3.06907 0.554818 -1.12382
rclavicle -3.06128e-014 3.57812e-014
rhumerus -20.8372 -14.1239 -87.0116
rradius 77.5207
rwrist 0.572339
rhand -24.2713 18.643
rfingers 7.12502
rthumb 2.21534 -11.3252
lclavicle -3.06128e-014 3.57812e-014
lhumerus -5.73385 -6.65873 87.9906
lradius 68.1127
lwrist -19.2413
lhand -49.0827 -17.2192
lfingers 7.12502
lthumb -21.7085 11.5836
rfemur -49.3965 -20.0519 15.7216
rtibia 84.4345
rfoot 9.87433 21.0981
rtoes -30.7927
lfemur 1.10281 14.1148 -10.7466
ltibia 40.9125
lfoot -22.4044 9.76029
ltoes 3.27278
172
root -14.2018 18.4936 11.8772 177.589 56.3432 -530.604
lowerback 6.35722 -2.58585 -0.13997
upperback 18.2544 -1.38682 0.526975
thorax 16.924 0.126779 0.830378
lowerneck 7.40214 0.676831 4.92729
upperneck -5.42835 1.3518 -1.08128
head -3.01156 0.610921 -1.28448
rclavicle 2.98177e-015 1.59028e-015
rhumerus -20.7586 -14.0973 -86.9794
rradius 77.7797
rwrist 0.634947
rhand -24.2984 18.5839
rfingers 7.12502
rthumb 2.18922 -11.3847
lclavicle 2.98177e-015 1.59028e-015
lhumerus -5.62531 -6.81019 87.9731
lradius 67.9778
lwrist -19.2813
lhand -49.1454 -17.2227
lfingers 7.12502
lthumb -21.7687 11.5732
rfemur -49.2899 -19.9922 15.7524
rtibia 82.9262
rfoot 10.2133 21.0283
rtoes -30.6313
lfemur 1.44625 14.2263 -10.8218
ltibia 40.9049
lfoot -22.5391 9.79991
ltoes 3.41087
173
root -14.1532 18.4757 11.8252 177.426 56.5001 -530.767
lowerback 6.17833 -2.6187 -0.0949932
upperback 18.23 -1.45521 0.554026
thorax 17.0067 0.0915263 0.827145
lowerneck 7.33775 0.759402 5.08904
upperneck -5.2989 1.45247 -1.36958
head -2.95082 0.669549 -1.41052
rclavicle 4.77083e-015 3.61788e-014
rhumerus -20.6833 -14.0212 -86.9353
rradius 78.0587
rwrist 0.720476
rhand -24.3395 18.4898
rfingers 7.12502
rthumb 2.14949 -11.4792
lclavicle 4.77083e-015 3.61788e-014
lhumerus -5.5209 -6.92386 87.9741
lradius 67.8511
lwrist -19.321
lhand -49.2115 -17.2105
lfingers 7.12502
lthumb -21.8321 11.578
rfemur -49.135 -19.9446 15.7521
rtibia 81.3643
rfoot 10.7099 20.9219
rtoes -30.0389
lfemur 1.79379 14.3145 -10.9075
ltibia 40.8788
lfoot -22.6896 9.81787
ltoes 3.67625
174
root -14.1036 18.4597 11.7732 177.293 56.6778 -530.892
lowerback 6.00513 -2.63024 -0.0100857
upperback 18.197 -1.49701 0.57977
thorax 17.0716 0.0748034 0.802179
lowerneck 7.32124 0.820354 5.31409
upperneck -5.17543 1.53236 -1.681
head -2.9018 0.717237 -1.55538
rclavicle -6.12257e-014 2.94201e-014
rhumerus -20.6017 -14.006 -86.8989
rradius 78.2755
rwrist 0.815408
rhand -24.417 18.4708
rfingers 7.12502
rthumb 2.07464 -11.4988
lclavicle -6.12257e-014 2.94201e-014
lhumerus -5.43025 -7.05099 87.9753
lradius 67.7166
lwrist -19.3812
lhand -49.246 -17.0977
lfingers 7.12502
lthumb -21.8652 11.6869
rfemur -48.9277 -19.8727 15.7619
rtibia 79.7495
rfoot 11.1592 20.7559
rtoes -29.8174
lfemur 2.15317 14.4267 -10.9611
ltibia 40.8476
lfoot -22.8504 9.81337
ltoes 4.10502
